<?xml version="1.0" standalone="no"?>
<!DOCTYPE svg PUBLIC "-//W3C//DTD SVG 20010904//EN"
 "http://www.w3.org/TR/2001/REC-SVG-20010904/DTD/svg10.dtd">
<svg version="1.0" xmlns="http://www.w3.org/2000/svg"
 width="1600.000000pt" height="608.000000pt" viewBox="0 0 1600.000000 608.000000"
 preserveAspectRatio="xMidYMid meet">
<metadata>
Created by potrace 1.11, written by Peter Selinger 2001-2013
</metadata>
<g transform="translate(0.000000,608.000000) scale(0.100000,-0.100000)"
fill="#000000" stroke="none">
<path d="M14550 5803 c-13 -3 -67 -25 -120 -49 -251 -118 -515 -301 -652 -453
-44 -50 -146 -227 -135 -237 4 -4 103 17 162 35 17 5 46 12 65 16 19 4 73 18
120 31 46 13 91 24 100 23 27 -1 -106 -48 -212 -74 -195 -49 -277 -92 -361
-185 -88 -97 -129 -222 -149 -441 l-12 -137 33 -51 c20 -31 43 -54 57 -57 15
-4 32 -21 43 -43 11 -20 31 -47 45 -60 l26 -24 0 149 c0 132 -2 152 -20 179
-24 36 -27 59 -3 26 16 -23 17 -23 24 -5 6 14 8 10 8 -16 1 -21 12 -51 27 -74
l27 -39 11 33 c6 18 20 38 31 44 11 6 37 21 57 33 21 13 40 23 43 23 3 0 5
-13 5 -30 0 -27 3 -30 30 -30 28 0 30 3 31 38 l2 37 6 -33 6 -34 30 32 c24 25
36 30 65 28 48 -4 50 20 8 85 -63 96 -57 118 11 41 51 -58 52 -83 10 -200 -26
-71 -29 -88 -18 -95 22 -14 57 -10 97 10 50 25 85 35 81 23 -2 -5 -34 -35 -72
-66 -51 -44 -72 -56 -88 -51 -20 7 -20 6 -4 -19 10 -14 22 -26 27 -26 6 0 31
20 56 45 52 52 121 95 151 95 26 0 109 -99 146 -174 26 -53 28 -76 10 -118 -6
-15 -2 -18 19 -18 23 0 31 8 48 47 27 61 16 98 -57 181 -53 61 -69 102 -44
117 5 4 19 -1 30 -11 38 -35 20 11 -26 65 -25 29 -45 56 -45 61 0 4 12 15 26
25 l26 17 -26 18 -27 17 28 6 c27 5 44 21 155 145 26 28 36 32 80 32 56 0 54
-3 33 82 -5 21 -2 27 23 37 58 24 92 -14 92 -103 0 -64 -8 -84 -71 -186 -66
-108 -86 -150 -119 -251 -38 -115 -40 -203 -8 -260 l22 -39 202 0 203 0 4 38
4 37 1 -37 2 -38 93 0 c89 0 94 1 120 28 21 22 27 38 27 71 0 34 -3 42 -15 37
-18 -7 -19 -1 -2 27 7 13 14 80 18 167 l5 145 2 -130 2 -129 58 55 c66 64 114
100 160 120 27 12 32 20 34 49 l1 35 4 -32 c2 -18 5 -33 6 -33 1 0 27 9 57 19
l55 18 3 405 2 404 -132 130 c-255 249 -406 353 -589 404 -73 20 -240 34 -289
23z m336 -258 c-11 -8 -24 -15 -29 -15 -5 0 -32 -19 -60 -42 -29 -24 -46 -34
-39 -23 16 30 53 61 92 78 45 20 60 20 36 2z m-206 -22 c-1 -13 -60 -78 -60
-66 0 11 47 73 56 73 2 0 4 -3 4 -7z m440 -34 c27 -6 50 -14 50 -17 0 -4 -28
-6 -62 -4 -55 2 -116 -8 -183 -32 -14 -5 -11 0 10 18 26 22 77 41 122 45 7 1
35 -4 63 -10z m-620 -113 c-11 -35 -36 -63 -46 -53 -9 8 4 42 28 72 26 33 33
26 18 -19z m850 -156 c43 -22 96 -84 124 -145 11 -25 20 -73 23 -125 l4 -85
-63 120 c-35 66 -83 148 -106 182 -23 34 -42 64 -42 67 0 11 21 6 60 -14z
m-1013 -346 c-3 -3 -12 -4 -19 -1 -8 3 -5 6 6 6 11 1 17 -2 13 -5z m-52 -19
c-75 -55 -133 -143 -154 -230 -9 -39 -9 -38 -10 23 -2 95 29 151 111 197 48
28 87 35 53 10z m109 -121 c-6 -25 -5 -26 20 -22 32 6 33 3 1 -18 -20 -13 -28
-14 -40 -4 -20 17 -19 47 3 59 23 14 23 14 16 -15z m-614 -81 c0 -3 -6 -14
-14 -22 -8 -9 -35 -57 -60 -108 -50 -100 -58 -110 -75 -89 -9 10 -7 17 5 27 9
7 29 41 44 74 28 62 74 125 91 125 5 0 9 -3 9 -7z m474 -75 c21 -29 21 -44 0
-24 -21 22 -67 20 -114 -4 -45 -23 -50 -24 -50 -10 0 6 7 10 15 10 9 0 18 7
21 15 4 8 18 15 33 15 14 0 33 5 41 10 23 15 38 12 54 -12z m-413 -37 c-12
-22 9 -37 28 -18 8 8 11 8 11 -1 0 -17 -38 -34 -60 -27 -38 12 -19 54 28 64 1
1 -2 -8 -7 -18z"/>
<path d="M752 4440 l-2 -35 -20 25 c-11 14 -20 21 -20 15 0 -5 9 -21 20 -35
18 -23 20 -42 20 -208 0 -105 -4 -181 -9 -178 -5 3 -73 100 -152 215 -79 116
-145 208 -147 206 -2 -2 61 -100 140 -217 79 -117 148 -219 152 -225 6 -10
-18 -13 -103 -13 l-110 0 -4 43 -4 42 -1 -42 -2 -42 -72 -4 -73 -3 73 -2 c69
-2 73 -3 71 -24 -4 -50 1 -321 7 -316 3 3 5 54 5 112 0 99 2 108 26 136 27 32
21 41 -9 13 -17 -15 -18 -15 -18 4 0 18 7 20 72 21 84 0 121 -15 143 -58 58
-113 -78 -219 -179 -139 -14 11 -26 16 -26 10 0 -21 64 -51 107 -51 33 0 50 7
78 31 l35 31 0 -972 0 -973 -20 26 c-43 54 -140 57 -186 6 l-19 -21 -6 48 c-3
30 -6 -8 -7 -93 l-2 -143 -72 -2 -73 -2 70 -5 c53 -5 70 -10 70 -21 0 -11 -16
-16 -65 -21 l-65 -6 67 -1 67 -2 4 -48 3 -47 2 48 2 47 85 0 c47 0 85 -2 85
-5 0 -3 -64 -100 -143 -217 -152 -225 -168 -250 -148 -232 6 6 78 109 160 230
105 155 155 220 170 222 21 3 21 1 21 -154 l0 -158 -51 -73 c-27 -40 -47 -73
-42 -73 4 0 24 25 43 55 19 30 38 55 42 55 4 0 9 -21 11 -48 3 -40 4 -38 5 18
l2 65 107 158 c72 106 112 157 124 157 17 0 19 -15 22 -223 l2 -222 3 223 2
222 115 0 115 0 1 -42 2 -43 6 40 6 40 422 3 422 2 4 -47 3 -48 2 48 2 47 115
0 115 0 3 -217 2 -218 3 218 c2 210 3 218 21 215 19 -3 228 -293 239 -330 2
-10 8 -18 12 -18 3 0 24 -25 45 -55 21 -31 39 -54 41 -52 4 4 -55 93 -211 320
l-95 138 130 -2 130 -1 155 -229 c86 -126 158 -229 161 -229 7 0 5 4 -153 237
-78 116 -143 214 -143 217 0 3 38 6 84 6 l85 0 4 -47 3 -48 2 48 2 47 73 2 72
2 -70 5 c-55 5 -71 10 -73 23 -3 15 8 18 75 21 l78 3 -77 2 -78 2 -2 143 c-1
78 -3 121 -5 95 -2 -27 -6 -48 -8 -48 -2 0 -16 11 -30 24 -49 45 -124 45 -167
0 -13 -13 -26 -24 -30 -24 -5 0 -8 432 -8 960 0 528 3 960 6 960 3 0 19 -11
36 -25 45 -38 116 -35 162 6 l35 30 4 -58 c2 -32 5 10 7 92 2 83 2 160 1 172
-1 21 3 22 71 26 l73 3 -72 2 -72 2 -4 43 -4 42 -1 -42 -2 -43 -111 0 c-94 0
-110 2 -105 15 3 8 69 109 147 225 77 116 139 213 137 215 -2 3 -67 -88 -143
-201 -77 -113 -144 -208 -150 -212 -7 -4 -14 -15 -18 -24 -6 -16 -21 -18 -127
-18 -94 0 -120 3 -114 13 4 6 60 89 123 182 140 206 171 253 171 261 0 10 -46
-41 -52 -57 -3 -8 -61 -95 -129 -194 l-124 -180 -5 225 -6 225 -2 -238 -2
-237 -662 2 -663 3 -5 240 -5 240 -5 -225 -5 -225 -122 176 c-109 157 -122
181 -126 225 -2 37 -4 41 -5 14z m147 -278 c61 -89 111 -164 111 -167 0 -3
-56 -5 -125 -5 l-125 0 0 182 c0 155 2 180 14 168 7 -8 64 -88 125 -178z
m1423 -205 c-12 -13 -22 -27 -22 -31 0 -4 -120 -183 -266 -398 -146 -214 -282
-414 -302 -443 -21 -30 -39 -54 -42 -54 -3 -1 -77 105 -165 234 -88 129 -225
330 -305 447 -80 116 -145 215 -145 218 0 4 -8 14 -17 24 -10 10 -18 19 -18
22 0 2 293 4 652 4 l651 0 -21 -23z m-1572 -52 c0 -14 -1 -25 -3 -25 -2 0 -14
11 -27 25 l-23 25 26 0 c22 0 27 -5 27 -25z m2048 11 c61 -33 79 -114 37 -164
-36 -44 -77 -58 -125 -43 -83 25 -107 114 -49 184 26 32 36 37 72 37 23 -1 52
-6 65 -14z m62 -6 c0 -11 -4 -20 -8 -20 -5 0 -17 9 -27 20 -18 20 -17 20 8 20
20 0 27 -5 27 -20z m-1570 -719 c134 -195 245 -362 247 -372 5 -16 -26 -63
-292 -449 -66 -96 -140 -205 -165 -242 -25 -38 -48 -68 -52 -68 -5 0 -8 341
-8 757 0 646 2 755 14 743 7 -8 123 -174 256 -369z m1058 -749 l-3 -377 -90
130 c-49 72 -165 240 -258 375 -165 238 -169 245 -154 269 8 14 125 185 259
380 l243 356 3 -378 c1 -207 1 -547 0 -755z m-724 261 l57 -83 -43 -62 c-24
-35 -140 -204 -257 -375 -193 -284 -215 -312 -236 -307 -27 7 -91 -20 -99 -42
-4 -10 5 -8 32 6 45 24 77 26 68 5 -3 -8 -21 -41 -41 -72 -39 -63 -20 -45 32
31 37 52 54 56 88 21 20 -19 25 -34 25 -76 0 -45 -4 -55 -34 -85 -43 -43 -100
-47 -143 -10 -24 21 -26 26 -13 42 12 16 12 17 0 6 -8 -6 -17 -12 -22 -12 -12
0 -20 64 -10 90 5 15 5 70 0 133 l-8 108 73 107 c40 59 160 234 266 390 107
156 197 280 201 275 4 -4 32 -45 64 -90z m464 -287 l262 -384 0 -107 0 -107
-30 25 c-31 26 -82 43 -99 32 -12 -7 -31 18 -307 425 -118 173 -213 319 -212
325 5 16 112 175 119 175 3 0 124 -173 267 -384z m-341 104 c28 -41 139 -205
247 -365 109 -159 193 -291 188 -293 -5 -1 -18 -10 -28 -18 -18 -14 -18 -15 3
-5 12 6 26 11 32 11 9 0 118 -150 128 -177 6 -15 -48 -43 -82 -43 -82 0 -143
99 -105 171 7 12 7 19 1 19 -5 0 -12 21 -14 48 -2 26 -4 -17 -5 -96 l-2 -142
-422 2 -423 3 -2 30 c0 17 -2 80 -4 140 -1 81 -4 97 -8 61 l-6 -48 -19 21
c-11 11 -25 21 -33 21 -7 0 -13 2 -13 4 0 3 87 132 193 288 105 156 219 322
251 371 33 48 63 84 66 80 3 -5 29 -42 57 -83z m-1051 -679 c65 -40 70 -126 8
-180 -39 -35 -78 -40 -124 -16 -42 21 -60 53 -60 103 0 37 6 50 34 78 40 40
92 46 142 15z m1594 4 c40 -20 60 -53 60 -95 0 -33 -14 -70 -23 -60 -2 3 -29
42 -61 88 -56 81 -57 82 -31 82 14 0 39 -7 55 -15z m532 -25 c38 -37 40 -43
35 -83 -4 -32 -15 -50 -43 -76 -33 -30 -41 -33 -82 -28 -87 10 -131 101 -85
177 20 35 47 48 97 49 32 1 45 -6 78 -39z m-2262 -177 c12 -11 9 -13 -13 -13
-23 0 -27 4 -27 28 1 23 3 25 13 12 7 -8 19 -21 27 -27z m1600 -5 c0 -4 -9 -8
-20 -8 -15 0 -20 7 -20 27 0 25 0 26 20 8 11 -10 20 -22 20 -27z m700 17 c0
-20 -5 -25 -27 -25 l-26 0 23 25 c13 14 25 25 27 25 2 0 3 -11 3 -25z m-1610
-5 c0 -14 -7 -20 -22 -20 -20 0 -21 1 -3 20 10 11 20 20 22 20 1 0 3 -9 3 -20z
m858 -47 c-3 -17 -32 -18 -417 -21 -412 -2 -443 0 -425 30 3 4 194 8 425 8
395 0 420 -1 417 -17z m-1158 -40 c0 -8 -157 -242 -176 -263 -12 -12 -14 7
-14 128 l0 142 95 0 c52 0 95 -3 95 -7z"/>
<path d="M2197 2563 c-11 -11 -8 -48 5 -61 7 -7 23 -12 36 -12 19 0 23 -5 20
-22 -2 -18 -9 -23 -31 -23 -29 1 -32 -18 -3 -23 31 -6 46 18 46 72 0 29 -5 57
-12 64 -13 13 -50 16 -61 5z m57 -19 c8 -21 -1 -34 -24 -34 -22 0 -34 15 -26
35 7 20 42 19 50 -1z"/>
<path d="M6611 4233 l-1 -243 -32 0 -33 0 -94 235 c-52 130 -96 233 -98 231
-3 -3 -4 -108 -4 -235 l1 -231 -119 0 -120 0 -4 38 -4 37 -1 -37 -2 -37 -67
-4 -68 -3 68 -2 c60 -2 67 -4 67 -22 0 -18 -7 -20 -72 -22 l-73 -2 70 -5 70
-6 5 -150 c3 -82 7 -124 8 -92 l2 59 30 -26 c31 -25 88 -42 112 -33 7 3 0 6
-15 6 -41 1 -85 28 -107 64 -24 38 -25 68 -5 107 22 42 53 60 106 60 41 0 51
-4 78 -35 40 -46 42 -95 6 -148 -14 -20 -21 -37 -16 -37 5 0 16 9 24 20 14 20
15 19 21 -20 8 -48 8 -1865 0 -1872 -3 -3 -17 5 -30 17 -50 47 -125 44 -171
-6 l-28 -29 -6 52 c-4 34 -6 1 -7 -89 l-2 -142 -67 -4 -68 -3 68 -2 c59 -2 68
-4 65 -19 -2 -14 -17 -19 -68 -24 l-65 -6 67 -1 67 -2 4 -47 3 -48 2 48 2 48
118 -3 117 -3 3 -180 c3 -281 8 -302 10 -47 l2 232 125 0 125 0 3 -232 2 -233
3 233 2 232 114 0 115 0 4 -48 3 -47 2 48 2 47 316 0 315 0 11 -31 c6 -16 12
-28 14 -26 3 2 0 16 -5 31 l-11 26 85 0 85 0 0 -210 c0 -115 -2 -210 -4 -210
-2 0 -14 27 -26 60 -13 34 -24 59 -27 57 -6 -7 51 -155 62 -159 6 -2 11 80 13
230 l2 232 31 0 c26 0 33 -6 49 -42 22 -50 27 -44 6 7 l-15 35 85 0 84 0 -1
-207 -1 -208 -18 40 c-9 22 -39 95 -65 163 -26 67 -49 121 -51 119 -7 -7 134
-361 145 -365 8 -3 11 67 11 227 l0 230 83 4 82 3 -82 2 c-75 2 -83 4 -83 22
0 17 8 20 83 23 l82 3 -83 2 -82 2 2 1148 3 1147 72 0 c39 0 75 4 79 8 4 4
-29 7 -74 7 -75 0 -82 2 -82 20 0 17 8 20 78 23 l77 3 -77 2 -78 2 0 235 c0
150 -4 235 -10 235 -6 0 -10 -85 -10 -235 l0 -235 -120 0 -120 0 0 235 c0 150
-4 235 -10 235 -6 0 -10 -85 -10 -235 l0 -235 -432 2 -431 3 -89 220 c-48 121
-92 229 -97 240 -6 13 -10 -62 -10 -222z m-102 -190 l21 -53 -85 0 -85 0 0
213 1 212 63 -160 c35 -88 73 -184 85 -212z m200 159 c45 -112 81 -206 81
-208 0 -2 -38 -4 -85 -4 l-85 0 0 212 c0 116 2 209 4 207 2 -2 41 -96 85 -207z
m961 -242 c0 -19 -7 -20 -139 -20 -131 0 -234 13 -255 32 -6 4 81 8 192 8 195
0 202 -1 202 -20z m260 0 c0 -19 -7 -20 -120 -20 -113 0 -120 1 -120 20 0 19
7 20 120 20 113 0 120 -1 120 -20z m-1792 -67 l-23 -25 -3 22 c-4 25 13 41 35
33 11 -4 9 -11 -9 -30z m1527 26 c3 -4 5 -37 3 -74 l-3 -68 -33 28 c-18 15
-66 47 -108 70 -41 24 -69 45 -62 48 18 7 195 3 203 -4z m262 -324 l2 -330
-19 88 c-25 116 -102 275 -170 350 l-50 55 0 79 c0 44 3 83 7 87 4 3 57 5 117
4 l111 -3 2 -330z m-777 230 c250 -53 449 -240 504 -475 18 -76 21 -231 5
-316 -14 -76 -68 -186 -127 -260 -51 -62 -160 -156 -176 -151 -5 2 -22 34 -37
73 -261 655 -441 1110 -442 1118 -5 26 169 33 273 11z m-70 -555 c117 -294
223 -563 236 -597 l24 -63 -38 -18 c-123 -62 -311 -82 -447 -47 -66 17 -168
63 -209 96 l-26 20 0 526 c0 398 3 524 12 521 13 -5 20 -22 288 -701 102 -257
186 -464 188 -459 1 5 -42 121 -96 258 -55 137 -132 332 -172 434 -40 102 -99
252 -131 334 -33 82 -56 153 -52 157 30 29 192 93 204 80 4 -3 102 -247 219
-541z m850 -856 c-1 -763 1 -737 -60 -769 -59 -31 -126 -10 -154 49 -20 42
-20 69 -1 106 32 62 121 79 174 34 21 -17 29 -20 25 -9 -7 17 -74 55 -99 55
-30 0 -94 -40 -109 -68 -14 -24 -15 15 -16 391 l0 418 54 67 c29 37 65 88 80
113 36 64 84 196 92 258 4 28 8 51 10 51 3 0 4 -313 4 -696z m-260 -206 l-1
-403 -24 60 c-13 33 -67 170 -120 305 -52 135 -99 254 -103 265 -8 17 2 24 77
61 47 23 104 58 126 78 22 19 41 35 43 36 1 0 2 -181 2 -402z m-988 352 c108
-83 251 -136 398 -149 l75 -6 36 -90 c47 -117 256 -645 265 -667 6 -17 -12
-18 -295 -18 l-301 0 -2 143 c-1 78 -3 118 -5 89 l-4 -53 -20 25 c-41 52 -123
57 -179 9 l-30 -25 0 391 c0 215 2 391 5 391 2 0 28 -18 57 -40z m-376 -734
c29 -29 34 -41 34 -80 0 -64 -38 -106 -102 -113 -42 -5 -49 -2 -84 30 -35 31
-39 41 -39 82 0 41 4 51 37 81 53 48 106 48 154 0z m484 19 c102 -53 60 -215
-55 -215 -36 0 -79 26 -99 60 -59 101 49 209 154 155z m-650 -190 l23 -25 -26
0 c-22 0 -27 5 -27 25 0 14 1 25 3 25 2 0 14 -11 27 -25z m710 0 c0 -18 -5
-25 -20 -25 -20 0 -20 1 -4 25 9 14 18 25 20 25 2 0 4 -11 4 -25z m1080 0 c0
-20 -5 -25 -26 -25 l-26 0 23 25 c30 30 29 30 29 0z m-457 -49 c3 -8 3 -17 0
-20 -4 -3 -143 -6 -310 -6 -296 0 -303 0 -303 20 0 20 7 20 304 20 251 0 305
-2 309 -14z m467 -1 c0 -18 -23 -18 -70 0 l-35 13 53 1 c40 1 52 -2 52 -14z"/>
<path d="M7080 2220 c0 -11 -4 -20 -10 -20 -5 0 -10 -4 -10 -10 0 -5 7 -7 15
-4 8 4 17 -1 21 -10 3 -9 10 -13 15 -10 5 3 7 10 3 15 -3 6 2 17 12 24 18 14
18 14 -3 15 -13 0 -23 5 -23 10 0 6 -4 10 -10 10 -5 0 -10 -9 -10 -20z"/>
<path d="M7226 2063 c5 -25 3 -34 -10 -39 -10 -4 -22 -2 -29 5 -16 16 -24 14
-30 -10 -8 -28 -41 -21 -45 10 -3 18 -6 21 -12 11 -20 -33 37 -68 66 -41 5 5
23 11 39 13 33 3 45 33 26 65 -8 14 -9 11 -5 -14z"/>
<path d="M7230 1821 c-38 -16 -45 -23 -45 -46 0 -16 8 -33 18 -39 27 -17 52 5
52 45 0 30 3 34 29 37 27 3 28 2 24 -27 -4 -24 -2 -28 9 -20 18 16 16 33 -5
52 -23 21 -26 21 -82 -2z m15 -46 c0 -21 -31 -33 -46 -18 -5 5 -7 17 -3 27 9
24 49 17 49 -9z"/>
<path d="M3292 4268 l-2 -198 -130 0 c-80 0 -130 -4 -130 -10 0 -6 50 -10 129
-10 l130 0 0 -85 0 -84 -132 -4 -132 -3 133 -2 132 -2 0 -112 0 -111 -40 -52
c-148 -192 -243 -435 -271 -692 -33 -311 68 -668 265 -930 l46 -61 -1 -166 0
-165 -132 -4 -132 -3 133 -2 132 -2 0 -30 0 -29 -132 -4 -133 -3 132 -2 133
-2 3 -197 2 -198 3 198 2 197 125 0 125 0 2 -197 2 -198 6 195 5 195 170 0
c156 0 180 -2 285 -30 l115 -29 340 0 340 -1 122 33 c113 29 135 32 278 32
l155 0 3 -197 2 -198 3 198 2 197 125 0 125 0 2 -197 2 -198 6 195 5 195 140
5 140 6 -140 4 -140 5 -3 28 -3 27 138 2 138 2 -135 6 -135 5 -3 155 -2 155
65 90 c123 172 196 342 236 547 10 54 18 129 18 166 -2 67 -2 67 -9 -23 -14
-165 -63 -323 -143 -468 -42 -74 -146 -217 -159 -217 -4 0 -8 105 -8 233 0
174 4 255 17 322 22 121 22 350 0 473 -13 69 -17 150 -17 322 0 127 4 230 8
230 8 0 93 -109 127 -162 9 -15 21 -26 25 -23 5 3 12 0 16 -6 4 -8 3 -9 -4 -5
-18 11 -15 2 22 -72 62 -125 102 -267 116 -417 l9 -90 -4 105 c-9 218 -93 455
-231 651 -29 42 -60 82 -69 89 -12 10 -15 35 -15 121 l0 108 143 4 142 3 -142
2 -142 2 0 85 1 85 139 0 c91 0 138 4 134 10 -4 6 -62 10 -140 10 l-135 0 -3
198 -2 197 -3 -197 -2 -198 -125 0 -125 0 -3 198 -2 197 -3 -197 -2 -198 -172
0 c-121 0 -190 5 -228 15 -30 8 -64 14 -75 14 -11 -1 0 -6 25 -13 43 -10 40
-11 -65 -14 -91 -2 -128 2 -210 23 l-100 25 130 -5 c72 -3 146 -7 165 -10 34
-4 34 -4 -5 7 -56 17 -675 17 -730 0 -39 -11 -39 -11 -5 -7 19 2 94 7 165 10
l130 5 -95 -25 c-74 -19 -120 -24 -210 -24 -80 0 -109 3 -95 10 15 7 13 8 -10
3 -16 -4 -119 -9 -227 -11 l-198 -4 -3 198 -2 198 -3 -197 -2 -198 -125 0
-125 0 -3 198 -2 197 -3 -197z m1294 -173 c42 -8 79 -17 82 -20 3 -3 -86 -5
-198 -5 -112 0 -201 2 -198 5 9 10 141 33 190 34 25 1 81 -6 124 -14z m-1036
-130 l0 -85 -124 0 -125 0 0 85 1 85 124 0 124 0 0 -85z m287 78 c-10 -10
-140 -63 -154 -63 -6 0 -16 -6 -20 -13 -9 -15 -76 -57 -90 -57 -6 0 -11 30
-11 70 l-1 70 141 0 c78 0 138 -3 135 -7z m224 -29 c-41 -19 -89 -36 -105 -38
-17 -2 -30 -9 -28 -15 1 -6 -8 -11 -20 -11 -16 0 -19 -3 -10 -9 9 -5 2 -15
-26 -34 -37 -24 -46 -26 -173 -26 l-134 0 70 44 c39 25 80 45 92 45 12 0 23 5
25 12 2 6 35 24 74 39 63 26 80 28 189 28 l120 0 -74 -35z m159 4 c-114 -30
-200 -46 -189 -34 3 3 37 19 75 35 57 24 83 29 149 29 l80 1 -115 -31z m630
-6 c64 -31 65 -32 25 -28 -22 2 -92 18 -155 35 l-115 31 90 -3 c78 -3 99 -7
155 -35z m270 7 c44 -17 78 -35 75 -40 -4 -5 4 -9 16 -9 13 0 55 -19 93 -42
l71 -43 -55 -3 c-43 -2 -81 5 -162 33 -58 19 -115 35 -127 35 -11 0 -21 4 -21
9 0 5 -14 12 -31 16 -17 4 -63 22 -102 40 l-72 34 118 0 c108 1 124 -1 197
-30z m248 -39 c0 -38 -3 -70 -6 -70 -11 0 -72 42 -72 50 0 5 -17 14 -37 20
-21 6 -65 24 -98 40 l-60 28 137 1 137 1 -1 -70z m261 -15 l0 -86 -122 3 -122
3 -2 83 -2 82 124 0 123 0 1 -85z m-1630 -18 c-23 -19 -123 -67 -132 -64 -12
4 80 63 109 69 19 4 31 1 23 -5z m1035 -30 c27 -17 44 -33 37 -35 -12 -4 -126
51 -146 70 -22 22 62 -6 109 -35z m91 -4 l80 -28 -47 -3 c-39 -3 -54 2 -89 27
-52 38 -45 38 56 4z m-1615 -53 c0 -5 -4 -10 -9 -10 -5 0 -52 -41 -105 -91
l-96 -91 0 101 0 101 105 0 c63 0 105 -4 105 -10z m28 -61 c-7 -4 -22 -15 -33
-24 -19 -16 -18 -16 7 -1 15 9 30 16 33 16 3 0 5 -39 5 -88 l0 -88 -54 -78
c-66 -95 -126 -214 -163 -327 l-28 -84 -3 234 -2 235 42 45 43 46 -42 -40
c-36 -33 -43 -36 -43 -19 0 21 109 134 195 202 l50 40 3 -31 c2 -18 -2 -33
-10 -38z m145 -44 c-65 -63 -119 -115 -120 -115 -10 -1 -1 158 9 168 9 9 9 12
0 12 -12 0 -17 32 -6 42 3 3 57 6 120 6 l116 1 -119 -114z m147 94 c-81 -66
-190 -162 -190 -168 -1 -10 -71 -83 -76 -78 -17 17 245 268 279 267 7 -1 1
-10 -13 -21z m1370 -53 c120 -103 195 -196 160 -196 -5 0 -10 4 -10 8 0 14
-158 170 -216 213 -29 23 -54 43 -54 45 0 2 8 4 18 4 9 0 55 -33 102 -74z
m108 44 l62 -29 0 -82 0 -82 -105 102 c-58 55 -110 101 -115 101 -6 0 -10 5
-10 10 0 22 104 10 168 -20z m62 5 c0 -25 -1 -25 -27 -11 -59 32 -60 36 -15
36 38 0 42 -2 42 -25z m59 -2 c69 -52 201 -187 201 -206 0 -14 -14 -6 -62 37
-34 31 -90 75 -125 98 -52 35 -63 46 -63 70 0 35 4 35 49 1z m201 -70 l0 -96
-62 59 c-35 33 -83 76 -107 97 l-45 37 107 0 107 0 0 -97z m-955 57 c84 -26
134 -51 198 -96 49 -35 63 -42 51 -23 -4 7 2 6 17 -2 38 -19 181 -169 221
-229 48 -73 104 -179 113 -210 3 -14 -12 9 -35 50 -74 133 -102 173 -112 158
-7 -9 -8 -8 -4 5 3 10 2 16 -4 12 -5 -3 -7 0 -4 8 5 14 -160 197 -179 197 -5
0 17 -28 49 -62 66 -69 92 -104 136 -182 26 -45 29 -44 10 3 -15 37 20 -6 57
-70 114 -198 161 -375 161 -610 0 -148 -21 -280 -62 -399 -31 -90 -103 -231
-138 -271 l-21 -24 7 25 c7 29 2 26 -16 -9 -9 -18 -9 -22 0 -16 8 5 11 3 9 -4
-3 -7 -8 -12 -12 -12 -4 1 -34 -34 -67 -78 -60 -80 -165 -169 -246 -209 -22
-11 -46 -28 -54 -36 -8 -10 -20 -14 -33 -10 -13 4 -17 2 -12 -5 5 -8 -1 -10
-19 -5 -14 3 -26 2 -26 -2 0 -5 -12 -10 -27 -10 -16 -1 -67 -5 -115 -9 -163
-15 -346 34 -459 121 -120 92 -206 190 -255 288 -24 50 -50 116 -58 146 -8 30
-15 46 -15 34 -1 -18 20 -87 45 -148 5 -13 4 -17 -3 -13 -18 12 -73 116 -113
215 -21 52 -41 88 -44 80 -3 -7 -4 -4 -1 8 3 12 -1 50 -10 85 -8 35 -15 80
-16 99 0 23 -3 29 -7 18 -4 -10 -7 52 -7 136 0 85 3 149 7 143 4 -7 8 1 8 18
0 37 35 186 56 239 8 21 12 48 9 60 -4 14 -3 17 3 8 6 -9 13 -2 24 25 9 21 15
47 15 58 -2 34 93 182 166 258 l68 72 -64 -80 c-35 -44 -78 -100 -95 -124 -35
-48 -44 -82 -12 -41 20 25 20 24 0 -34 -30 -88 -23 -93 8 -6 49 132 119 226
252 334 93 77 197 124 318 146 80 15 258 4 337 -20z m786 -87 c35 -26 88 -69
117 -96 l52 -50 -1 -221 0 -221 -23 65 c-39 111 -90 211 -159 313 l-67 98 0
80 c0 43 4 79 9 79 5 0 37 -21 72 -47z m232 -170 c43 -56 113 -173 104 -173
-2 0 -20 24 -39 53 -19 28 -54 74 -77 102 -36 43 -51 75 -37 75 3 0 25 -26 49
-57z m-2454 -38 c-55 -68 -73 -84 -44 -37 38 59 90 122 93 113 2 -6 -20 -40
-49 -76z m2251 -95 c84 -143 140 -311 139 -414 l-1 -71 -18 90 c-33 168 -103
339 -191 467 -50 73 -53 112 -3 43 19 -28 53 -79 74 -115z m-1946 128 c-4 -7
-22 -35 -40 -63 -86 -135 -150 -291 -179 -434 -18 -86 -25 -100 -25 -49 0 41
39 181 75 271 28 67 103 202 143 255 24 31 40 44 26 20z m-266 -578 c-7 -47
-13 -141 -13 -210 0 -69 6 -163 13 -210 9 -59 12 -163 10 -335 l-3 -250 -48
60 c-104 131 -175 277 -218 445 -22 86 -24 115 -23 300 1 188 3 213 27 303 14
54 50 147 79 205 28 59 52 113 51 119 0 7 3 11 7 8 4 -3 19 13 33 34 15 22 41
56 59 77 l33 37 3 -249 c2 -171 -1 -275 -10 -334z m2022 215 c0 -5 -5 -3 -10
5 -5 8 -10 20 -10 25 0 6 5 3 10 -5 5 -8 10 -19 10 -25z m362 -420 c0 -82 -5
-163 -10 -180 -8 -22 -10 23 -11 175 0 153 3 199 11 180 6 -14 10 -91 10 -175z
m-2375 -87 c-1 -46 -3 -9 -3 82 0 91 2 128 3 83 2 -46 2 -120 0 -165z m2318
-318 c-15 -47 -44 -121 -65 -165 -44 -91 -152 -263 -157 -248 -2 5 17 40 42
77 88 131 164 323 188 476 l12 75 3 -65 c2 -48 -4 -86 -23 -150z m-2227 -85
c32 -81 34 -92 12 -51 -31 56 -81 212 -86 270 -3 39 3 25 25 -59 16 -60 38
-132 49 -160z m-44 52 c26 -78 111 -257 122 -257 3 0 4 7 0 15 -8 22 2 18 15
-6 8 -15 8 -19 0 -15 -23 14 -10 -14 34 -73 l45 -61 0 -90 c0 -50 -3 -90 -8
-90 -4 0 -19 8 -32 17 -23 15 -24 16 -12 0 8 -9 22 -19 33 -22 13 -4 19 -16
19 -36 0 -16 -3 -29 -7 -29 -13 0 -111 82 -177 148 -82 83 -86 119 -5 46 29
-27 70 -60 89 -73 44 -31 35 -21 -67 68 l-83 72 0 236 c0 130 2 234 4 232 2
-2 16 -39 30 -82z m1963 -8 c-33 -87 -81 -181 -130 -254 -50 -73 -171 -200
-235 -245 -34 -25 -23 -11 41 49 141 134 261 310 322 474 10 26 20 46 22 43 2
-2 -7 -32 -20 -67z m269 -436 c-61 -58 -161 -133 -178 -133 -5 0 -8 36 -8 79
l0 80 64 94 c69 102 120 202 157 310 l24 67 3 -217 3 -218 -65 -62z m-1834
274 c23 -40 44 -65 50 -61 7 4 8 2 4 -5 -9 -14 51 -97 138 -191 60 -65 60 -65
-18 10 -84 81 -181 217 -227 318 -33 72 -38 97 -8 37 12 -22 39 -70 61 -108z
m-282 -45 c0 -4 -9 7 -20 23 -11 17 -20 35 -20 40 0 6 9 -5 20 -23 11 -18 20
-36 20 -40z m2286 -79 c-58 -87 -95 -132 -96 -114 0 7 27 47 61 89 34 42 63
82 66 89 3 8 8 12 10 9 3 -2 -16 -35 -41 -73z m-2486 -43 c23 -27 40 -55 38
-61 -2 -6 -23 16 -46 50 -24 34 -41 61 -39 61 3 0 24 -22 47 -50z m2120 -66
c0 -25 -232 -244 -259 -244 -10 0 -7 6 9 17 53 35 149 125 191 177 40 50 59
66 59 50z m223 -76 c-60 -64 -185 -168 -200 -168 -7 0 -13 10 -13 23 0 17 16
34 63 64 34 23 89 66 122 96 42 39 61 50 63 40 2 -8 -13 -33 -35 -55z m-1918
-56 c60 -59 109 -110 107 -114 -1 -5 5 -8 15 -8 15 0 113 -57 113 -66 0 -14
-173 45 -183 62 -4 8 -20 14 -35 14 -15 0 -49 13 -77 28 l-50 27 -3 83 c-2 45
-2 82 0 82 2 0 52 -48 113 -108z m1684 -59 c-20 -23 -84 -52 -122 -55 -22 -1
-33 -6 -30 -14 4 -12 -162 -72 -173 -62 -6 7 89 68 106 68 7 0 11 3 7 6 -3 3
20 28 51 54 31 26 82 73 112 104 l55 57 3 -72 c2 -45 -1 -76 -9 -86z m-1890
-16 c25 -20 38 -37 30 -38 -8 0 1 -5 19 -10 31 -9 32 -12 32 -60 l0 -50 -122
3 -123 3 -3 154 -2 155 62 -60 c35 -33 83 -76 107 -97z m2150 -37 c-8 -6 -8
-9 0 -14 6 -4 11 -30 11 -57 l0 -50 -122 3 -123 3 -3 43 c-3 39 -1 43 28 56
17 7 30 15 28 18 -2 2 24 27 57 55 33 28 76 67 95 87 l35 37 3 -87 c2 -58 -1
-90 -9 -94z m-1995 -2 c-3 -4 3 -8 13 -8 11 0 56 -13 101 -30 45 -16 112 -37
149 -46 38 -9 72 -21 78 -25 5 -5 -42 -9 -109 -9 -116 0 -119 1 -185 35 -90
48 -100 57 -107 94 l-7 32 36 -17 c20 -10 34 -21 31 -26z m1743 8 c-2 -32 -9
-39 -77 -80 l-75 -46 -118 0 c-64 0 -117 4 -117 8 0 5 32 16 71 25 39 10 105
31 146 47 41 17 84 30 95 30 12 0 18 3 14 7 -5 5 45 40 61 43 2 0 2 -16 0 -34z
m-287 -31 c0 -7 -103 -65 -115 -65 -5 0 15 16 45 35 53 33 70 41 70 30z
m-1454 -47 c30 -18 54 -36 54 -41 0 -4 -26 -7 -57 -5 l-58 3 -3 38 c-2 20 0
37 3 37 4 0 31 -15 61 -32z m324 -4 c0 -2 -9 0 -20 6 -11 6 -20 13 -20 16 0 2
9 0 20 -6 11 -6 20 -13 20 -16z m1418 -6 c-3 -32 -4 -33 -55 -36 -29 -2 -53 1
-53 5 0 8 88 61 103 62 5 1 7 -14 5 -31z m-1818 -78 l0 -30 -125 0 -125 0 0
30 0 30 125 0 125 0 0 -30z m236 3 l59 -28 -129 -3 c-72 -1 -136 0 -143 2 -7
3 -13 17 -13 31 0 25 1 25 84 25 70 0 93 -4 142 -27z m287 0 l52 -28 -109 -3
c-109 -3 -164 8 -226 43 -23 13 -13 14 103 15 120 0 131 -2 180 -27z m75 5
c107 -34 112 -37 75 -37 -28 -1 -158 40 -172 54 -11 11 35 3 97 -17z m692 -5
c-30 -14 -80 -27 -110 -29 l-55 -4 85 29 c109 37 158 40 80 4z m310 12 c-62
-35 -117 -46 -226 -43 l-109 3 55 27 c50 24 65 26 180 27 113 0 123 -1 100
-14z m220 -10 c0 -14 -6 -28 -13 -31 -7 -2 -67 -3 -133 -2 l-119 3 50 27 c43
23 62 27 133 28 81 0 82 0 82 -25z m260 -5 l0 -30 -125 0 -125 0 0 30 0 30
125 0 125 0 0 -30z m-1396 -55 c21 -6 27 -5 22 4 -5 8 50 11 214 11 164 0 219
-3 214 -11 -5 -9 1 -10 22 -4 43 11 282 17 264 6 -27 -16 -199 -42 -308 -47
-108 -4 -113 -1 -32 23 49 14 37 13 -92 -9 -52 -9 -84 -9 -135 0 -130 22 -142
23 -93 9 81 -24 76 -27 -32 -23 -109 5 -281 31 -308 47 -18 11 221 5 264 -6z"/>
<path d="M3835 3930 c-13 -5 -14 -9 -5 -9 8 0 24 4 35 9 13 5 14 9 5 9 -8 0
-24 -4 -35 -9z"/>
<path d="M3459 3743 c-13 -16 -12 -17 4 -4 16 13 21 21 13 21 -2 0 -10 -8 -17
-17z"/>
<path d="M3414 3708 l-19 -23 23 19 c21 18 27 26 19 26 -2 0 -12 -10 -23 -22z"/>
<path d="M5155 3384 c3 -12 12 -41 20 -65 12 -38 14 -39 8 -9 -3 19 -12 49
-19 65 -8 17 -11 21 -9 9z"/>
<path d="M3715 3360 c-9 -18 -14 -34 -11 -37 2 -3 12 9 21 27 9 18 14 34 11
37 -2 3 -12 -9 -21 -27z"/>
<path d="M3732 3270 c0 -14 2 -19 5 -12 2 6 2 18 0 25 -3 6 -5 1 -5 -13z"/>
<path d="M5193 3220 c0 -25 2 -35 4 -22 2 12 2 32 0 45 -2 12 -4 2 -4 -23z"/>
<path d="M3724 3130 c0 -58 1 -81 3 -52 2 28 2 76 0 105 -2 28 -3 5 -3 -53z"/>
<path d="M4283 3160 c-40 -10 -85 -26 -100 -35 -15 -9 -19 -13 -8 -9 117 40
149 46 255 51 86 4 133 1 184 -11 38 -9 71 -14 73 -12 3 2 -27 11 -66 20 -95
22 -247 20 -338 -4z"/>
<path d="M5202 3120 c0 -19 2 -27 5 -17 2 9 2 25 0 35 -3 9 -5 1 -5 -18z"/>
<path d="M4749 3115 c30 -14 70 -34 90 -46 22 -12 28 -14 16 -4 -25 21 -102
60 -135 69 -14 3 -1 -5 29 -19z"/>
<path d="M4125 3100 c-3 -6 1 -7 9 -4 18 7 21 14 7 14 -6 0 -13 -4 -16 -10z"/>
<path d="M4024 3037 c-63 -46 -157 -145 -187 -196 -29 -49 -14 -36 27 23 43
62 121 139 184 181 38 25 49 35 38 35 -2 0 -30 -19 -62 -43z"/>
<path d="M5193 3030 c0 -25 2 -35 4 -22 2 12 2 32 0 45 -2 12 -4 2 -4 -23z"/>
<path d="M4968 2964 c49 -49 101 -110 116 -136 l27 -47 -27 -46 c-82 -142
-256 -269 -426 -314 -257 -68 -520 -2 -707 178 -55 53 -144 176 -137 190 1 3
-6 15 -17 25 -20 19 -20 19 -12 0 5 -10 9 -29 9 -41 1 -11 4 -19 8 -17 3 2 27
-24 51 -59 271 -380 809 -426 1137 -97 37 36 80 88 95 114 26 45 29 47 42 30
8 -10 25 -53 38 -94 13 -41 24 -65 25 -52 0 12 -14 58 -31 102 l-30 80 26 66
c15 37 29 83 31 103 3 23 -4 8 -20 -39 -14 -41 -31 -84 -39 -94 -13 -17 -16
-15 -46 34 -35 56 -114 140 -169 179 -18 13 7 -17 56 -65z"/>
<path d="M3732 2980 c0 -14 2 -19 5 -12 2 6 2 18 0 25 -3 6 -5 1 -5 -13z"/>
<path d="M3741 2934 c0 -11 3 -14 6 -6 3 7 2 16 -1 19 -3 4 -6 -2 -5 -13z"/>
<path d="M3750 2905 c0 -5 5 -17 10 -25 5 -8 10 -10 10 -5 0 6 -5 17 -10 25
-5 8 -10 11 -10 5z"/>
<path d="M4370 2795 c-22 -30 -40 -57 -40 -60 0 -3 14 -5 30 -5 22 0 30 -5 31
-17 0 -14 2 -13 9 5 6 13 6 31 0 45 -7 17 -9 18 -9 5 -1 -11 -9 -18 -22 -18
-19 0 -19 2 8 38 35 44 46 62 39 62 -3 0 -24 -25 -46 -55z"/>
<path d="M4590 2811 c0 -36 3 -40 28 -43 19 -2 28 -9 30 -25 3 -22 -5 -28 -38
-23 -11 1 -12 -1 -4 -10 16 -16 44 -9 58 13 15 24 -3 51 -38 55 -21 3 -26 8
-26 32 0 25 4 29 33 33 31 4 31 4 -5 5 -38 2 -38 2 -38 -37z"/>
<path d="M4515 2710 c-3 -5 -1 -10 4 -10 6 0 11 5 11 10 0 6 -2 10 -4 10 -3 0
-8 -4 -11 -10z"/>
<path d="M3756 2675 c-9 -26 -7 -32 5 -12 6 10 9 21 6 23 -2 3 -7 -2 -11 -11z"/>
<path d="M3741 2624 c0 -11 3 -14 6 -6 3 7 2 16 -1 19 -3 4 -6 -2 -5 -13z"/>
<path d="M3732 2580 c0 -14 2 -19 5 -12 2 6 2 18 0 25 -3 6 -5 1 -5 -13z"/>
<path d="M5193 2530 c0 -25 2 -35 4 -22 2 12 2 32 0 45 -2 12 -4 2 -4 -23z"/>
<path d="M3724 2430 c0 -63 1 -89 3 -57 2 31 2 83 0 115 -2 31 -3 5 -3 -58z"/>
<path d="M5202 2440 c0 -19 2 -27 5 -17 2 9 2 25 0 35 -3 9 -5 1 -5 -18z"/>
<path d="M5193 2345 c0 -22 2 -30 4 -17 2 12 2 30 0 40 -3 9 -5 -1 -4 -23z"/>
<path d="M5181 2264 c0 -11 3 -14 6 -6 3 7 2 16 -1 19 -3 4 -6 -2 -5 -13z"/>
<path d="M8522 4228 l-2 -238 -114 0 -115 0 -4 38 -4 37 -1 -37 -2 -38 -72 -2
-73 -2 70 -5 c56 -5 70 -10 73 -23 3 -16 -6 -18 -70 -20 l-73 -2 70 -5 70 -6
5 -150 c3 -82 7 -126 8 -97 l2 53 25 -20 c53 -41 123 -38 175 6 l30 25 0 -962
0 -962 -30 25 c-54 46 -133 44 -176 -5 -19 -20 -19 -20 -25 28 -5 42 -6 36 -7
-33 l-2 -83 -70 0 c-40 0 -70 -4 -70 -10 0 -6 30 -10 70 -10 l70 0 0 -50 0
-49 -72 -4 -73 -3 73 -2 c64 -2 73 -4 70 -19 -3 -14 -17 -19 -73 -24 l-70 -5
72 -2 72 -2 4 -47 3 -48 2 48 2 47 115 0 115 0 3 -233 2 -232 3 233 2 232 125
0 125 0 3 -233 2 -232 3 233 2 232 684 0 685 0 4 -27 4 -28 2 28 c1 23 5 27
30 27 25 0 30 -5 34 -27 l4 -28 2 28 1 27 98 2 97 2 -95 5 c-75 5 -95 9 -95
21 0 12 20 16 95 21 l95 5 -97 2 -98 2 0 50 0 50 95 0 c57 0 95 4 95 10 0 6
-38 10 -95 10 l-95 0 0 114 0 115 53 4 52 3 -52 2 -52 2 -4 88 -3 87 -2 -88
-2 -88 -27 3 c-28 3 -28 4 -34 93 l-5 90 -2 -92 -2 -93 -247 -2 c-189 -2 -210
-3 -90 -5 l159 -4 -32 -36 c-29 -33 -32 -41 -28 -89 3 -33 12 -62 23 -74 28
-31 38 -24 13 11 -31 42 -30 95 5 148 24 35 32 41 63 41 117 0 177 -128 95
-202 l-30 -27 -651 -1 -650 0 0 995 c0 547 3 995 8 995 4 0 13 -9 19 -19 16
-26 77 -44 119 -36 44 8 94 54 94 86 -1 22 -2 21 -15 -8 -15 -36 -68 -73 -103
-73 -36 0 -81 28 -102 63 -31 50 -25 76 27 142 19 23 30 27 69 27 56 -2 91
-22 109 -65 13 -29 14 -29 15 -8 0 13 -11 32 -26 44 -25 19 -25 21 -8 28 10 3
223 6 471 5 249 0 453 2 453 6 0 4 -199 9 -442 10 -386 3 -443 5 -443 18 0 13
58 16 445 20 l445 5 -567 3 -568 2 -3 238 -2 237 -3 -237 -2 -238 -125 0 -125
0 -3 238 -2 237 -3 -237z m-198 -307 c3 -4 -3 -16 -14 -26 -19 -17 -20 -17
-20 2 0 29 22 45 34 24z m155 -27 c32 -27 48 -77 36 -113 -3 -12 -18 -34 -31
-51 -66 -78 -194 -25 -194 80 0 38 26 85 54 99 41 19 102 13 135 -15z m1681
-1939 c0 -14 -1 -25 -3 -25 -2 0 -14 11 -27 25 l-23 25 26 0 c22 0 27 -5 27
-25z m-1702 -109 c25 -13 62 -63 62 -83 0 -10 -30 -13 -115 -13 -110 0 -115 1
-115 21 0 12 15 36 34 55 27 27 42 34 73 34 21 -1 48 -6 61 -14z m62 -127 c0
-6 -17 -29 -39 -50 -43 -43 -80 -50 -130 -25 -28 15 -61 56 -61 76 0 6 42 10
115 10 78 0 115 -4 115 -11z m-200 -64 l23 -25 -26 0 c-22 0 -27 5 -27 25 0
14 1 25 3 25 2 0 14 -11 27 -25z"/>
<path d="M11582 4378 c17 -40 61 -143 98 -228 l67 -155 -131 -3 c-185 -4 -188
-22 -4 -22 98 0 148 -4 150 -11 2 -6 -143 -354 -323 -773 l-326 -761 -229 -5
-229 -6 223 -2 c122 -1 222 -5 221 -9 0 -5 -10 -28 -22 -53 l-22 -45 -200 -5
-200 -6 193 -2 c141 -1 192 -5 192 -14 0 -12 -178 -426 -210 -488 -10 -19 -21
-48 -25 -64 -3 -16 -22 -45 -41 -64 -32 -32 -38 -34 -81 -29 -66 7 -103 49
-103 113 0 40 5 51 36 80 26 25 44 34 70 34 46 0 90 -24 108 -58 9 -15 15 -21
16 -14 0 28 -23 55 -66 74 -53 23 -91 18 -134 -19 l-30 -25 0 46 c0 25 -4 46
-10 46 -6 0 -10 -53 -10 -139 0 -137 0 -140 -22 -144 l-23 -4 23 -2 c15 -1 22
-7 22 -20 0 -12 -8 -21 -22 -24 l-23 -4 23 -2 c19 -1 22 -6 22 -46 0 -25 5
-45 10 -45 6 0 10 20 10 45 l0 45 80 0 79 0 -18 -42 c-162 -373 -281 -652
-277 -655 2 -2 33 63 68 144 36 81 105 239 153 351 l89 202 108 0 c59 0 108
-3 108 -7 0 -4 -66 -160 -146 -346 -80 -186 -144 -340 -142 -343 2 -2 44 87
92 199 49 111 118 268 153 350 l65 147 159 0 159 0 0 -45 c0 -25 5 -45 10 -45
6 0 10 20 10 45 l0 45 564 0 565 0 4 -47 3 -48 2 48 2 47 164 0 165 0 12 -35
c7 -19 17 -35 21 -35 5 0 2 16 -6 35 -13 31 -13 35 0 35 7 0 14 -4 14 -10 0
-11 242 -15 252 -4 4 3 -2 37 -13 75 -27 96 -22 98 10 4 l28 -80 292 -3 c161
-1 291 1 289 6 -1 4 -28 57 -60 117 -31 61 -90 192 -132 292 -114 273 -190
443 -264 588 -37 71 -69 133 -71 138 -2 5 6 3 18 -5 45 -27 93 -121 196 -383
58 -148 112 -276 120 -284 12 -12 20 -12 55 2 22 8 38 11 35 6 -9 -14 1 -11
42 11 21 11 43 20 49 20 24 0 97 85 126 147 24 51 32 82 36 152 3 56 0 101 -8
125 -16 48 -63 102 -110 126 -43 22 -141 40 -217 40 -53 0 -83 7 -83 19 0 4
58 2 128 -5 147 -13 193 -31 243 -94 35 -43 49 -50 49 -23 0 34 -52 93 -105
118 -43 22 -72 27 -183 33 -127 8 -133 9 -162 37 -41 40 -39 77 10 170 22 42
40 89 40 106 0 43 -34 133 -80 212 -22 38 -42 84 -46 102 -8 43 10 77 39 73
18 -2 22 -9 19 -36 -2 -29 0 -32 27 -32 23 0 38 -10 66 -45 20 -24 46 -47 56
-50 15 -5 17 -10 10 -19 -7 -9 -7 -16 1 -24 8 -8 4 -20 -16 -47 -23 -29 -25
-36 -11 -33 25 4 29 -16 8 -37 -65 -64 -67 -105 -12 -175 48 -61 62 -60 23 1
-14 23 -26 53 -26 65 0 23 25 69 62 113 26 30 56 23 106 -24 20 -19 40 -32 45
-29 13 8 11 24 -3 24 -12 1 -78 55 -78 64 0 3 20 -2 45 -12 24 -9 48 -13 51
-9 4 4 0 31 -9 61 -22 69 -22 78 8 106 30 28 32 16 6 -24 -22 -33 -19 -46 8
-46 10 0 26 -9 36 -20 21 -23 55 -27 55 -5 0 18 0 18 38 0 35 -18 49 -49 32
-71 -7 -8 -30 -24 -51 -36 -22 -12 -39 -25 -39 -29 0 -5 13 -29 29 -55 42 -64
47 -128 22 -228 -27 -104 -27 -123 9 -191 34 -64 37 -90 15 -142 -8 -20 -13
-38 -11 -40 2 -2 25 21 52 51 l48 54 44 -25 c24 -14 54 -27 66 -28 12 -2 39
-15 60 -29 64 -43 80 -30 20 18 -39 31 -84 115 -84 156 0 18 7 9 24 -31 41
-101 109 -162 193 -175 57 -8 71 0 92 56 10 25 25 61 34 80 8 19 23 52 31 74
l16 38 -207 312 c-161 240 -210 322 -219 361 -16 71 -37 116 -74 159 -41 47
-91 72 -198 102 -46 12 -87 26 -90 30 -4 3 2 4 13 1 56 -17 198 -47 202 -43
12 12 -58 114 -117 169 -84 80 -167 135 -305 202 -143 70 -216 88 -325 83 -69
-3 -95 -9 -135 -31 -47 -25 -48 -26 -21 -3 98 81 310 73 520 -20 124 -55 122
-55 96 -3 -73 143 -206 286 -316 340 -67 33 -72 34 -186 32 -114 -1 -119 -2
-195 -40 l-78 -38 0 -523 0 -523 59 -24 c34 -14 78 -43 103 -67 66 -64 74 -89
12 -36 -52 44 -109 78 -156 92 l-23 7 0 -366 0 -366 -81 3 -80 3 -80 185 c-44
102 -115 266 -158 365 -43 99 -115 266 -161 370 -45 105 -122 282 -171 395
-49 112 -87 210 -85 217 4 10 49 13 191 13 122 0 184 3 180 10 -4 6 -75 10
-180 10 l-173 0 95 218 c52 119 97 223 100 230 3 6 1 12 -4 12 -4 0 -53 -103
-107 -230 -58 -134 -105 -230 -113 -230 -7 0 -13 1 -13 3 0 1 -20 49 -45 106
-25 57 -45 111 -45 120 0 9 16 55 36 101 51 120 55 132 45 126 -4 -3 -28 -51
-52 -106 -24 -55 -47 -96 -50 -92 -4 4 -24 48 -44 97 -32 79 -55 121 -55 103
0 -3 22 -56 49 -117 l50 -111 -52 -115 c-28 -63 -56 -115 -62 -115 -6 0 -56
101 -110 225 -53 124 -101 228 -106 231 -5 3 5 -28 23 -68z m361 -285 c24 -56
42 -105 39 -108 -7 -7 -182 -7 -182 1 0 5 79 193 87 207 7 12 6 13 56 -100z
m1318 -314 c19 -16 20 -18 4 -10 -34 17 -51 31 -39 31 7 0 22 -9 35 -21z m-85
-25 c19 -15 19 -15 -2 -9 -12 3 -42 10 -65 14 l-44 9 46 1 c27 1 53 -5 65 -15z
m284 -78 c0 -6 -7 -2 -15 8 -8 11 -15 25 -15 30 0 6 7 2 15 -8 8 -11 15 -25
15 -30z m-1297 -646 l264 -605 -530 -3 c-292 -1 -532 -1 -533 1 -3 3 32 87
231 542 144 330 285 655 293 674 3 8 7 11 9 5 2 -5 122 -281 266 -614z m808
568 c-12 -18 -38 -64 -59 -103 -34 -65 -37 -68 -40 -40 -6 47 18 103 60 140
48 44 67 45 39 3z m628 -203 c30 -26 56 -84 48 -108 -2 -6 -12 6 -21 28 -9 22
-31 55 -48 73 -38 38 -23 43 21 7z m-89 -60 c0 -8 -7 -15 -15 -15 -9 0 -12 6
-9 15 4 8 10 15 15 15 5 0 9 -7 9 -15z m384 -109 c29 -54 29 -56 18 -56 -6 0
-56 88 -70 125 -11 27 30 -26 52 -69z m-255 28 c10 -9 -6 -11 -36 -7 -18 3
-33 9 -33 14 0 8 59 1 69 -7z m181 -29 c0 -8 -7 -15 -15 -15 -9 0 -12 6 -9 15
4 8 10 15 15 15 5 0 9 -7 9 -15z m269 -127 c1 -10 -3 -18 -9 -18 -6 0 -9 25
-9 58 1 56 1 57 10 17 4 -22 8 -48 8 -57z m-1053 -129 c32 -19 62 -49 50 -49
-21 0 -126 61 -126 73 0 11 38 -1 76 -24z m54 -119 c12 0 80 -60 80 -70 0 -5
-27 10 -60 32 -59 39 -76 56 -44 44 9 -3 20 -6 24 -6z m997 -47 c-3 -10 -5 -2
-5 17 0 19 2 27 5 18 2 -10 2 -26 0 -35z m-25 -325 c38 -49 29 -48 -20 0 -34
34 -37 41 -28 62 l11 25 3 -25 c2 -14 17 -42 34 -62z m-1227 -123 l0 -50 -51
-3 -51 -3 -18 43 c-9 24 -20 49 -22 56 -4 10 11 12 68 10 l74 -3 0 -50z m-336
-102 c22 -44 171 -390 171 -397 0 -3 -16 2 -37 10 -48 20 -98 11 -134 -25
l-28 -29 -4 52 c-2 28 -4 -13 -5 -91 l-2 -143 -565 0 -565 0 0 140 c0 87 -4
140 -10 140 -5 0 -10 -21 -10 -46 l0 -46 -31 26 c-17 14 -42 29 -57 33 -23 5
-36 2 -95 -22 -16 -7 -15 -2 6 46 13 30 56 129 97 222 l72 167 589 0 589 0 19
-37z m339 -70 c1 -57 -1 -103 -5 -103 -6 0 -38 71 -92 202 -1 5 19 8 45 6 l49
-3 3 -102z m897 -36 c-9 -19 -28 -45 -42 -58 -20 -20 -18 -14 11 31 20 30 36
61 37 70 0 9 2 11 5 3 3 -7 -2 -28 -11 -46z m-104 -80 l-24 -22 19 27 c10 14
21 24 23 22 3 -3 -6 -15 -18 -27z m-2355 -241 c29 -29 34 -41 34 -83 0 -41 -5
-54 -29 -77 -98 -94 -256 26 -182 138 26 39 57 55 105 56 30 0 45 -7 72 -34z
m1390 0 c39 -39 45 -86 19 -136 -53 -102 -215 -60 -215 55 0 65 53 114 124
115 30 0 45 -7 72 -34z m-166 -171 l23 -25 -26 0 c-22 0 -27 5 -27 25 0 14 1
25 3 25 2 0 14 -11 27 -25z m-1895 -5 c18 -19 17 -20 -3 -20 -15 0 -22 6 -22
20 0 11 2 20 3 20 2 0 12 -9 22 -20z m705 0 c0 -14 -7 -20 -22 -20 -20 0 -21
1 -3 20 10 11 20 20 22 20 1 0 3 -9 3 -20z m1148 -47 c-3 -17 -39 -18 -566
-21 -557 -2 -562 -2 -562 18 0 20 6 20 566 20 533 0 565 -1 562 -17z"/>
<path d="M15483 4370 l-43 -19 0 -181 0 -180 60 0 60 0 0 200 c0 225 4 216
-77 180z"/>
<path d="M13570 4226 c0 -145 1 -148 60 -182 16 -10 31 -26 33 -36 10 -36 43
-20 70 33 l27 50 -90 135 c-50 73 -93 134 -95 134 -3 0 -5 -60 -5 -134z"/>
<path d="M15367 4311 c-27 -15 -79 -54 -118 -85 l-69 -57 0 -58 0 -58 66 34
c63 31 104 42 104 26 -1 -14 -87 -73 -129 -90 -23 -9 -41 -20 -41 -25 0 -4 56
-8 125 -8 l125 0 0 175 c0 96 -3 175 -7 175 -5 0 -30 -13 -56 -29z"/>
<path d="M13350 4283 c0 -12 9 -27 20 -33 26 -14 26 1 0 31 l-19 24 -1 -22z"/>
<path d="M13656 4268 c34 -57 106 -158 114 -158 14 0 43 48 37 63 -2 7 -39 34
-82 60 -42 26 -73 42 -69 35z"/>
<path d="M14138 4148 c-61 -44 -123 -101 -144 -132 l-16 -26 84 0 c83 0 86 1
141 41 62 44 70 65 42 119 -20 39 -49 39 -107 -2z"/>
<path d="M4028 4093 c6 -2 18 -2 25 0 6 3 1 5 -13 5 -14 0 -19 -2 -12 -5z"/>
<path d="M13840 4030 l0 -40 45 0 c55 0 59 17 14 54 -44 38 -59 34 -59 -14z"/>
<path d="M13810 4041 c0 -5 5 -13 10 -16 6 -3 10 -2 10 4 0 5 -4 13 -10 16 -5
3 -10 2 -10 -4z"/>
<path d="M13782 4018 c-19 -19 -14 -28 13 -28 27 0 32 12 12 29 -10 8 -17 7
-25 -1z"/>
<path d="M13867 3974 c-13 -13 7 -34 33 -34 33 0 49 18 29 31 -16 10 -53 12
-62 3z"/>
<path d="M13980 3965 c-17 -21 13 -31 46 -16 14 6 34 11 45 11 11 0 17 5 14
10 -10 16 -91 12 -105 -5z"/>
<path d="M14334 3963 c-17 -17 -17 -18 0 -21 20 -4 48 16 40 29 -8 14 -21 11
-40 -8z"/>
<path d="M14537 3974 c-3 -3 -3 -12 0 -20 4 -11 41 -14 194 -14 182 0 189 1
189 20 0 19 -7 20 -188 20 -104 0 -191 -3 -195 -6z"/>
<path d="M13900 3905 c7 -8 16 -15 21 -15 5 0 9 7 9 15 0 9 -9 15 -21 15 -18
0 -19 -2 -9 -15z"/>
<path d="M13970 3901 c0 -25 20 -38 31 -20 15 23 10 39 -11 39 -13 0 -20 -7
-20 -19z"/>
<path d="M14280 3889 c-32 -44 -18 -47 27 -5 34 32 36 35 16 36 -13 0 -30 -12
-43 -31z"/>
<path d="M14580 3870 c13 -33 20 -74 20 -117 0 -62 -2 -67 -36 -100 -59 -55
-78 -61 -234 -68 -80 -3 -160 -8 -178 -11 l-33 -5 20 -27 19 -27 138 6 c77 4
157 10 178 14 29 6 37 5 32 -4 -16 -26 -80 -41 -180 -42 -166 -2 -171 29 53
-311 108 -164 198 -298 201 -298 3 0 21 39 39 88 106 273 155 391 182 439 37
65 115 151 160 178 l34 19 -16 -24 c-57 -88 -110 -182 -171 -304 -102 -207
-200 -426 -196 -441 5 -19 542 -824 551 -825 4 0 7 390 7 867 l0 866 -23 -21
c-35 -33 -40 -27 -13 16 61 94 37 113 -62 49 -38 -25 -73 -51 -77 -58 -11 -17
21 -39 59 -40 29 -2 29 -2 5 -6 -15 -2 -43 3 -62 11 -40 16 -47 12 -65 -39 -8
-24 -11 1 -11 118 l-1 147 -180 0 -180 0 20 -50z"/>
<path d="M14930 3900 c0 -11 4 -20 8 -20 5 0 17 9 27 20 18 20 17 20 -8 20
-20 0 -27 -5 -27 -20z"/>
<path d="M14977 3900 c-36 -29 -52 -81 -37 -125 6 -19 16 -35 21 -35 5 0 29
19 52 41 23 23 63 51 89 63 25 13 43 27 40 32 -31 45 -121 58 -165 24z"/>
<path d="M15477 3890 c-32 -38 -40 -64 -33 -104 7 -39 52 -84 86 -88 l25 -3 3
113 3 112 -30 0 c-20 0 -37 -9 -54 -30z"/>
<path d="M9100 3820 c0 -35 3 -40 24 -40 13 0 29 -7 36 -16 11 -12 10 -18 -3
-31 -14 -14 -18 -14 -33 -2 -15 12 -17 12 -12 -1 7 -21 48 -19 62 3 15 24 -3
51 -38 55 -21 3 -26 8 -26 32 0 25 4 29 33 33 31 4 31 4 -5 5 -38 2 -38 2 -38
-38z"/>
<path d="M9294 3846 c-3 -8 -4 -25 -2 -38 2 -18 10 -24 36 -26 29 -3 32 -6 26
-25 -9 -29 -25 -38 -43 -24 -11 10 -13 9 -9 -3 6 -20 35 -25 53 -10 18 15 20
111 3 128 -17 17 -57 15 -64 -2z m54 -22 c2 -12 -4 -24 -12 -27 -19 -7 -40 18
-32 39 8 22 40 13 44 -12z"/>
<path d="M14930 3726 c0 -8 5 -18 10 -21 6 -3 10 1 10 9 0 8 -4 18 -10 21 -5
3 -10 -1 -10 -9z"/>
<path d="M15443 3140 c1 -333 6 -616 11 -630 6 -19 5 -21 -3 -10 -8 11 -11
-83 -11 -333 l0 -349 30 25 c16 14 44 28 61 32 l32 7 -6 83 c-5 66 -3 86 9 95
7 7 14 25 14 41 0 22 5 29 19 29 24 0 45 -25 37 -45 -3 -8 -1 -15 4 -15 6 0
10 13 10 29 0 31 -14 41 -61 41 l-29 0 1 78 c0 56 3 71 9 54 11 -26 52 -47 74
-39 18 7 22 72 6 82 -6 4 -10 -8 -10 -30 0 -32 -3 -36 -22 -33 -37 5 -56 54
-57 146 -1 66 2 82 14 82 10 0 15 10 15 30 0 26 4 30 26 30 23 0 26 -3 22 -25
-6 -27 6 -34 16 -10 12 33 -19 61 -55 50 -10 -4 -23 -21 -28 -38 -7 -26 -9
-13 -10 61 l-1 92 34 0 c52 0 83 39 54 68 -31 31 -81 2 -71 -39 3 -11 0 -19
-6 -19 -8 0 -11 138 -11 499 l0 499 -32 6 c-18 3 -45 18 -60 33 l-28 27 3
-604z m196 -414 c9 -11 8 -18 -5 -31 -15 -15 -19 -15 -32 -1 -17 17 -10 46 11
46 8 0 20 -6 26 -14z"/>
<path d="M600 3506 c-6 -8 -10 -25 -8 -38 2 -18 10 -24 36 -26 23 -2 32 -8 32
-21 0 -24 -25 -45 -45 -37 -8 3 -15 1 -15 -3 0 -17 28 -19 49 -5 30 21 31 118
2 134 -26 14 -36 13 -51 -4z m50 -11 c10 -12 10 -18 0 -30 -16 -19 -39 -19
-46 0 -6 15 11 45 26 45 4 0 13 -7 20 -15z"/>
<path d="M13577 3023 c-13 -13 -7 -50 11 -66 10 -9 39 -26 65 -37 28 -12 52
-31 57 -43 14 -37 24 6 11 46 -18 52 -121 124 -144 100z"/>
<path d="M13766 2954 c-19 -19 -22 -88 -3 -82 6 3 16 14 22 26 6 13 19 22 32
22 28 0 29 11 5 33 -23 21 -36 21 -56 1z"/>
<path d="M14440 2453 c-123 -303 -217 -518 -286 -656 -41 -82 -74 -153 -74
-158 0 -5 200 -9 505 -9 l505 0 6 24 c4 19 -50 108 -295 475 -166 248 -303
451 -305 451 -2 0 -27 -57 -56 -127z"/>
<path d="M15488 1843 c-25 -29 -48 -80 -48 -107 0 -31 55 -96 81 -96 28 0 39
39 39 136 l0 84 -28 0 c-16 0 -36 -8 -44 -17z"/>
<path d="M14082 1603 c3 -17 35 -18 478 -21 261 -1 485 0 498 3 12 3 22 12 22
20 0 13 -65 15 -501 15 -471 0 -500 -1 -497 -17z"/>
<path d="M15114 1609 c-9 -16 12 -33 31 -25 14 5 15 9 5 21 -15 18 -26 19 -36
4z"/>
<path d="M14024 1559 c-8 -14 14 -29 33 -22 7 3 13 11 13 19 0 17 -36 19 -46
3z"/>
<path d="M14080 1555 c0 -13 59 -15 492 -13 382 2 492 6 496 16 3 9 -100 12
-492 12 -436 0 -496 -2 -496 -15z"/>
<path d="M15096 1555 c-4 -12 3 -15 34 -15 29 0 40 4 40 15 0 10 -10 15 -34
15 -21 0 -36 -6 -40 -15z"/>
<path d="M15196 1555 c5 -13 24 -15 118 -13 148 4 142 22 -9 26 -101 2 -114 1
-109 -13z"/>
<path d="M15460 1555 c8 -9 30 -15 56 -15 32 0 44 4 44 15 0 12 -13 15 -56 15
-49 0 -55 -2 -44 -15z"/>
<path d="M7526 1480 c4 -14 15 -43 25 -65 11 -22 16 -29 13 -15 -4 14 -15 43
-25 65 -11 22 -16 29 -13 15z"/>
<path d="M13084 1470 c8 -30 59 -140 63 -137 2 3 -12 38 -32 78 -19 41 -33 67
-31 59z"/>
<path d="M12855 1433 c63 -151 240 -550 248 -558 14 -15 14 -14 -123 304 -69
160 -128 291 -133 291 -4 0 0 -17 8 -37z"/>
<path d="M7576 1350 c4 -14 13 -36 21 -50 l14 -25 -7 25 c-4 14 -13 36 -21 50
l-14 25 7 -25z"/>
<path d="M13151 1315 c0 -5 8 -26 19 -45 11 -19 19 -30 19 -25 0 6 -8 26 -19
45 -11 19 -19 31 -19 25z"/>
<path d="M13195 1215 c12 -40 149 -345 152 -341 4 4 -130 317 -147 344 -10 15
-11 15 -5 -3z"/>
</g>
</svg>
